<?xml version="1.0" encoding="utf-8" standalone="no"?>
<!DOCTYPE svg PUBLIC "-//W3C//DTD SVG 1.1//EN"
  "http://www.w3.org/Graphics/SVG/1.1/DTD/svg11.dtd">
<svg xmlns:xlink="http://www.w3.org/1999/xlink" width="1008pt" height="720pt" viewBox="0 0 1008 720" xmlns="http://www.w3.org/2000/svg" version="1.1">
 <metadata>
  <rdf:RDF xmlns:dc="http://purl.org/dc/elements/1.1/" xmlns:cc="http://creativecommons.org/ns#" xmlns:rdf="http://www.w3.org/1999/02/22-rdf-syntax-ns#">
   <cc:Work>
    <dc:type rdf:resource="http://purl.org/dc/dcmitype/StillImage"/>
    <dc:date>2022-03-19T22:44:34.489145</dc:date>
    <dc:format>image/svg+xml</dc:format>
    <dc:creator>
     <cc:Agent>
      <dc:title>Matplotlib v3.5.1, https://matplotlib.org/</dc:title>
     </cc:Agent>
    </dc:creator>
   </cc:Work>
  </rdf:RDF>
 </metadata>
 <defs>
  <style type="text/css">*{stroke-linejoin: round; stroke-linecap: butt}</style>
 </defs>
 <g id="figure_1">
  <g id="patch_1">
   <path d="M 0 720 
L 1008 720 
L 1008 0 
L 0 0 
L 0 720 
z
" style="fill: none"/>
  </g>
  <g id="axes_1">
   <g id="patch_2">
    <path d="M 461.585915 294.247059 
C 477.634812 294.247059 493.028548 288.070114 504.376831 277.076625 
C 515.725114 266.083135 522.101408 251.170671 522.101408 235.623529 
C 522.101408 220.076388 515.725114 205.163924 504.376831 194.170434 
C 493.028548 183.176945 477.634812 177 461.585915 177 
C 445.537019 177 430.143283 183.176945 418.795 194.170434 
C 407.446717 205.163924 401.070423 220.076388 401.070423 235.623529 
C 401.070423 251.170671 407.446717 266.083135 418.795 277.076625 
C 430.143283 288.070114 445.537019 294.247059 461.585915 294.247059 
L 461.585915 294.247059 
z
" clip-path="url(#p40a51b614a)" style="fill: none; stroke: #000000; stroke-linejoin: miter"/>
   </g>
   <g id="patch_3">
    <path d="M 577.115493 374.188235 
C 593.164389 374.188235 608.558125 368.01129 619.906408 357.017801 
C 631.254692 346.024312 637.630986 331.111848 637.630986 315.564706 
C 637.630986 300.017564 631.254692 285.1051 619.906408 274.111611 
C 608.558125 263.118121 593.164389 256.941176 577.115493 256.941176 
C 561.066597 256.941176 545.672861 263.118121 534.324578 274.111611 
C 522.976294 285.1051 516.6 300.017564 516.6 315.564706 
C 516.6 331.111848 522.976294 346.024312 534.324578 357.017801 
C 545.672861 368.01129 561.066597 374.188235 577.115493 374.188235 
L 577.115493 374.188235 
z
" clip-path="url(#p40a51b614a)" style="fill: none; stroke: #000000; stroke-linejoin: miter"/>
   </g>
   <g id="patch_4">
    <path d="M 137.002817 326.223529 
C 154.510704 326.223529 171.30387 319.485044 183.683816 307.492147 
C 196.063761 295.499249 203.019718 279.231106 203.019718 262.270588 
C 203.019718 245.31007 196.063761 229.041927 183.683816 217.04903 
C 171.30387 205.056132 154.510704 198.317647 137.002817 198.317647 
C 119.49493 198.317647 102.701764 205.056132 90.321818 217.04903 
C 77.941873 229.041927 70.985915 245.31007 70.985915 262.270588 
C 70.985915 279.231106 77.941873 295.499249 90.321818 307.492147 
C 102.701764 319.485044 119.49493 326.223529 137.002817 326.223529 
L 137.002817 326.223529 
z
" clip-path="url(#p40a51b614a)" style="fill: none; stroke: #000000; stroke-linejoin: miter"/>
   </g>
   <g id="patch_5">
    <path d="M 692.64507 166.341176 
C 711.611948 166.341176 729.804545 159.041151 743.216152 146.048845 
C 756.62776 133.05654 764.16338 115.432718 764.16338 97.058824 
C 764.16338 78.684929 756.62776 61.061108 743.216152 48.068802 
C 729.804545 35.076496 711.611948 27.776471 692.64507 27.776471 
C 673.678193 27.776471 655.485596 35.076496 642.073989 48.068802 
C 628.662381 61.061108 621.126761 78.684929 621.126761 97.058824 
C 621.126761 115.432718 628.662381 133.05654 642.073989 146.048845 
C 655.485596 159.041151 673.678193 166.341176 692.64507 166.341176 
L 692.64507 166.341176 
z
" clip-path="url(#p40a51b614a)" style="fill: none; stroke: #000000; stroke-linejoin: miter"/>
   </g>
   <g id="patch_6">
    <path d="M 725.653521 400.835294 
C 734.407465 400.835294 742.804048 397.466051 748.99402 391.469603 
C 755.183993 385.473154 758.661972 377.339083 758.661972 368.858824 
C 758.661972 360.378564 755.183993 352.244493 748.99402 346.248044 
C 742.804048 340.251596 734.407465 336.882353 725.653521 336.882353 
C 716.899578 336.882353 708.502995 340.251596 702.313022 346.248044 
C 696.123049 352.244493 692.64507 360.378564 692.64507 368.858824 
C 692.64507 377.339083 696.123049 385.473154 702.313022 391.469603 
C 708.502995 397.466051 716.899578 400.835294 725.653521 400.835294 
L 725.653521 400.835294 
z
" clip-path="url(#p40a51b614a)" style="fill: none; stroke: #000000; stroke-linejoin: miter"/>
   </g>
   <g id="patch_7">
    <path d="M 544.107042 187.658824 
C 555.778967 187.658824 566.974411 183.1665 575.227708 175.171235 
C 583.481005 167.17597 588.11831 156.330542 588.11831 145.023529 
C 588.11831 133.716517 583.481005 122.871089 575.227708 114.875824 
C 566.974411 106.880559 555.778967 102.388235 544.107042 102.388235 
C 532.435118 102.388235 521.239674 106.880559 512.986376 114.875824 
C 504.733079 122.871089 500.095775 133.716517 500.095775 145.023529 
C 500.095775 156.330542 504.733079 167.17597 512.986376 175.171235 
C 521.239674 183.1665 532.435118 187.658824 544.107042 187.658824 
L 544.107042 187.658824 
z
" clip-path="url(#p40a51b614a)" style="fill: none; stroke: #000000; stroke-linejoin: miter"/>
   </g>
   <g id="patch_8">
    <path d="M 802.673239 235.623529 
C 812.886173 235.623529 822.682187 231.692746 829.903822 224.696889 
C 837.125457 217.701033 841.183099 208.211283 841.183099 198.317647 
C 841.183099 188.424011 837.125457 178.934262 829.903822 171.938405 
C 822.682187 164.942548 812.886173 161.011765 802.673239 161.011765 
C 792.460305 161.011765 782.664292 164.942548 775.442657 171.938405 
C 768.221022 178.934262 764.16338 188.424011 764.16338 198.317647 
C 764.16338 208.211283 768.221022 217.701033 775.442657 224.696889 
C 782.664292 231.692746 792.460305 235.623529 802.673239 235.623529 
L 802.673239 235.623529 
z
" clip-path="url(#p40a51b614a)" style="fill: none; stroke: #000000; stroke-linejoin: miter"/>
   </g>
   <g id="patch_9">
    <path d="M 681.642254 582.035294 
C 699.15014 582.035294 715.943307 575.296809 728.323252 563.303911 
C 740.703198 551.311014 747.659155 535.042871 747.659155 518.082353 
C 747.659155 501.121835 740.703198 484.853692 728.323252 472.860795 
C 715.943307 460.867897 699.15014 454.129412 681.642254 454.129412 
C 664.134367 454.129412 647.3412 460.867897 634.961255 472.860795 
C 622.581309 484.853692 615.625352 501.121835 615.625352 518.082353 
C 615.625352 535.042871 622.581309 551.311014 634.961255 563.303911 
C 647.3412 575.296809 664.134367 582.035294 681.642254 582.035294 
L 681.642254 582.035294 
z
" clip-path="url(#p40a51b614a)" style="fill: none; stroke: #000000; stroke-linejoin: miter"/>
   </g>
   <g id="patch_10">
    <path d="M 313.047887 299.576471 
C 320.34284 299.576471 327.339993 296.768768 332.498303 291.771728 
C 337.656614 286.774687 340.55493 279.996294 340.55493 272.929412 
C 340.55493 265.862529 337.656614 259.084136 332.498303 254.087096 
C 327.339993 249.090055 320.34284 246.282353 313.047887 246.282353 
C 305.752934 246.282353 298.755782 249.090055 293.597471 254.087096 
C 288.439161 259.084136 285.540845 265.862529 285.540845 272.929412 
C 285.540845 279.996294 288.439161 286.774687 293.597471 291.771728 
C 298.755782 296.768768 305.752934 299.576471 313.047887 299.576471 
L 313.047887 299.576471 
z
" clip-path="url(#p40a51b614a)" style="fill: none; stroke: #000000; stroke-linejoin: miter"/>
   </g>
   <g id="patch_11">
    <path d="M 406.571831 182.329412 
C 424.079718 182.329412 440.872884 175.590926 453.25283 163.598029 
C 465.632775 151.605132 472.588732 135.336989 472.588732 118.376471 
C 472.588732 101.415952 465.632775 85.14781 453.25283 73.154912 
C 440.872884 61.162015 424.079718 54.423529 406.571831 54.423529 
C 389.063944 54.423529 372.270778 61.162015 359.890832 73.154912 
C 347.510887 85.14781 340.55493 101.415952 340.55493 118.376471 
C 340.55493 135.336989 347.510887 151.605132 359.890832 163.598029 
C 372.270778 175.590926 389.063944 182.329412 406.571831 182.329412 
L 406.571831 182.329412 
z
" clip-path="url(#p40a51b614a)" style="fill: none; stroke: #000000; stroke-linejoin: miter"/>
   </g>
   <g id="patch_12">
    <path d="M 841.183099 645.988235 
C 860.149976 645.988235 878.342573 638.68821 891.75418 625.695904 
C 905.165788 612.703598 912.701408 595.079777 912.701408 576.705882 
C 912.701408 558.331988 905.165788 540.708166 891.75418 527.715861 
C 878.342573 514.723555 860.149976 507.423529 841.183099 507.423529 
C 822.216221 507.423529 804.023624 514.723555 790.612017 527.715861 
C 777.200409 540.708166 769.664789 558.331988 769.664789 576.705882 
C 769.664789 595.079777 777.200409 612.703598 790.612017 625.695904 
C 804.023624 638.68821 822.216221 645.988235 841.183099 645.988235 
L 841.183099 645.988235 
z
" clip-path="url(#p40a51b614a)" style="fill: none; stroke: #000000; stroke-linejoin: miter"/>
   </g>
   <g id="patch_13">
    <path d="M 780.667606 464.788235 
C 790.88054 464.788235 800.676553 460.857452 807.898188 453.861595 
C 815.119823 446.865738 819.177465 437.375989 819.177465 427.482353 
C 819.177465 417.588717 815.119823 408.098967 807.898188 401.103111 
C 800.676553 394.107254 790.88054 390.176471 780.667606 390.176471 
C 770.454672 390.176471 760.658658 394.107254 753.437023 401.103111 
C 746.215388 408.098967 742.157746 417.588717 742.157746 427.482353 
C 742.157746 437.375989 746.215388 446.865738 753.437023 453.861595 
C 760.658658 460.857452 770.454672 464.788235 780.667606 464.788235 
L 780.667606 464.788235 
z
" clip-path="url(#p40a51b614a)" style="fill: none; stroke: #000000; stroke-linejoin: miter"/>
   </g>
   <g id="patch_14">
    <path d="M 148.005634 619.341176 
C 159.677558 619.341176 170.873003 614.848853 179.1263 606.853588 
C 187.379597 598.858323 192.016901 588.012895 192.016901 576.705882 
C 192.016901 565.39887 187.379597 554.553442 179.1263 546.558177 
C 170.873003 538.562912 159.677558 534.070588 148.005634 534.070588 
C 136.333709 534.070588 125.138265 538.562912 116.884968 546.558177 
C 108.631671 554.553442 103.994366 565.39887 103.994366 576.705882 
C 103.994366 588.012895 108.631671 598.858323 116.884968 606.853588 
C 125.138265 614.848853 136.333709 619.341176 148.005634 619.341176 
L 148.005634 619.341176 
z
" clip-path="url(#p40a51b614a)" style="fill: none; stroke: #000000; stroke-linejoin: miter"/>
   </g>
   <g id="patch_15">
    <path d="M 494.594366 566.047059 
C 510.643263 566.047059 526.036998 559.870114 537.385282 548.876625 
C 548.733565 537.883135 555.109859 522.970671 555.109859 507.423529 
C 555.109859 491.876388 548.733565 476.963924 537.385282 465.970434 
C 526.036998 454.976945 510.643263 448.8 494.594366 448.8 
C 478.54547 448.8 463.151734 454.976945 451.803451 465.970434 
C 440.455167 476.963924 434.078873 491.876388 434.078873 507.423529 
C 434.078873 522.970671 440.455167 537.883135 451.803451 548.876625 
C 463.151734 559.870114 478.54547 566.047059 494.594366 566.047059 
L 494.594366 566.047059 
z
" clip-path="url(#p40a51b614a)" style="fill: none; stroke: #000000; stroke-linejoin: miter"/>
   </g>
   <g id="patch_16">
    <path d="M 709.149296 331.552941 
C 719.36223 331.552941 729.158243 327.622158 736.379878 320.626301 
C 743.601513 313.630444 747.659155 304.140694 747.659155 294.247059 
C 747.659155 284.353423 743.601513 274.863673 736.379878 267.867816 
C 729.158243 260.87196 719.36223 256.941176 709.149296 256.941176 
C 698.936362 256.941176 689.140348 260.87196 681.918713 267.867816 
C 674.697078 274.863673 670.639437 284.353423 670.639437 294.247059 
C 670.639437 304.140694 674.697078 313.630444 681.918713 320.626301 
C 689.140348 327.622158 698.936362 331.552941 709.149296 331.552941 
L 709.149296 331.552941 
z
" clip-path="url(#p40a51b614a)" style="fill: none; stroke: #000000; stroke-linejoin: miter"/>
   </g>
   <g id="patch_17">
    <path d="M 874.191549 443.470588 
C 888.781455 443.470588 902.77576 437.855184 913.092382 427.861103 
C 923.409003 417.867021 929.205634 404.310236 929.205634 390.176471 
C 929.205634 376.042705 923.409003 362.48592 913.092382 352.491839 
C 902.77576 342.497757 888.781455 336.882353 874.191549 336.882353 
C 859.601644 336.882353 845.607338 342.497757 835.290717 352.491839 
C 824.974096 362.48592 819.177465 376.042705 819.177465 390.176471 
C 819.177465 404.310236 824.974096 417.867021 835.290717 427.861103 
C 845.607338 437.855184 859.601644 443.470588 874.191549 443.470588 
L 874.191549 443.470588 
z
" clip-path="url(#p40a51b614a)" style="fill: none; stroke: #000000; stroke-linejoin: miter"/>
   </g>
   <g id="patch_18">
    <path d="M 291.042254 507.423529 
C 302.714178 507.423529 313.909622 502.931206 322.162919 494.935941 
C 330.416216 486.940676 335.053521 476.095247 335.053521 464.788235 
C 335.053521 453.481223 330.416216 442.635795 322.162919 434.64053 
C 313.909622 426.645265 302.714178 422.152941 291.042254 422.152941 
C 279.370329 422.152941 268.174885 426.645265 259.921588 434.64053 
C 251.668291 442.635795 247.030986 453.481223 247.030986 464.788235 
C 247.030986 476.095247 251.668291 486.940676 259.921588 494.935941 
C 268.174885 502.931206 279.370329 507.423529 291.042254 507.423529 
L 291.042254 507.423529 
z
" clip-path="url(#p40a51b614a)" style="fill: none; stroke: #000000; stroke-linejoin: miter"/>
   </g>
   <g id="patch_19">
    <path d="M 373.56338 438.141176 
C 391.071267 438.141176 407.864433 431.402691 420.244379 419.409794 
C 432.624324 407.416896 439.580282 391.148754 439.580282 374.188235 
C 439.580282 357.227717 432.624324 340.959574 420.244379 328.966677 
C 407.864433 316.973779 391.071267 310.235294 373.56338 310.235294 
C 356.055493 310.235294 339.262327 316.973779 326.882382 328.966677 
C 314.502436 340.959574 307.546479 357.227717 307.546479 374.188235 
C 307.546479 391.148754 314.502436 407.416896 326.882382 419.409794 
C 339.262327 431.402691 356.055493 438.141176 373.56338 438.141176 
L 373.56338 438.141176 
z
" clip-path="url(#p40a51b614a)" style="fill: none; stroke: #000000; stroke-linejoin: miter"/>
   </g>
   <g id="patch_20">
    <path d="M 599.121127 683.294118 
C 615.170023 683.294118 630.563759 677.117173 641.912042 666.123683 
C 653.260326 655.130194 659.63662 640.21773 659.63662 624.670588 
C 659.63662 609.123447 653.260326 594.210982 641.912042 583.217493 
C 630.563759 572.224004 615.170023 566.047059 599.121127 566.047059 
C 583.07223 566.047059 567.678495 572.224004 556.330211 583.217493 
C 544.981928 594.210982 538.605634 609.123447 538.605634 624.670588 
C 538.605634 640.21773 544.981928 655.130194 556.330211 666.123683 
C 567.678495 677.117173 583.07223 683.294118 599.121127 683.294118 
L 599.121127 683.294118 
z
" clip-path="url(#p40a51b614a)" style="fill: none; stroke: #000000; stroke-linejoin: miter"/>
   </g>
   <g id="patch_21">
    <path d="M 890.695775 288.917647 
C 902.367699 288.917647 913.563143 284.425324 921.81644 276.430059 
C 930.069737 268.434794 934.707042 257.589365 934.707042 246.282353 
C 934.707042 234.975341 930.069737 224.129912 921.81644 216.134647 
C 913.563143 208.139382 902.367699 203.647059 890.695775 203.647059 
C 879.02385 203.647059 867.828406 208.139382 859.575109 216.134647 
C 851.321812 224.129912 846.684507 234.975341 846.684507 246.282353 
C 846.684507 257.589365 851.321812 268.434794 859.575109 276.430059 
C 867.828406 284.425324 879.02385 288.917647 890.695775 288.917647 
L 890.695775 288.917647 
z
" clip-path="url(#p40a51b614a)" style="fill: none; stroke: #000000; stroke-linejoin: miter"/>
   </g>
   <g id="patch_22">
    <path d="M 313.047887 667.305882 
C 330.555774 667.305882 347.34894 660.567397 359.728886 648.5745 
C 372.108832 636.581602 379.064789 620.313459 379.064789 603.352941 
C 379.064789 586.392423 372.108832 570.12428 359.728886 558.131383 
C 347.34894 546.138485 330.555774 539.4 313.047887 539.4 
C 295.54 539.4 278.746834 546.138485 266.366889 558.131383 
C 253.986943 570.12428 247.030986 586.392423 247.030986 603.352941 
C 247.030986 620.313459 253.986943 636.581602 266.366889 648.5745 
C 278.746834 660.567397 295.54 667.305882 313.047887 667.305882 
L 313.047887 667.305882 
z
" clip-path="url(#p40a51b614a)" style="fill: none; stroke: #000000; stroke-linejoin: miter"/>
   </g>
   <g id="patch_23">
    <path d="M 808.174648 347.541176 
C 818.387582 347.541176 828.183596 343.610393 835.40523 336.614537 
C 842.626865 329.61868 846.684507 320.12893 846.684507 310.235294 
C 846.684507 300.341658 842.626865 290.851909 835.40523 283.856052 
C 828.183596 276.860195 818.387582 272.929412 808.174648 272.929412 
C 797.961714 272.929412 788.1657 276.860195 780.944065 283.856052 
C 773.72243 290.851909 769.664789 300.341658 769.664789 310.235294 
C 769.664789 320.12893 773.72243 329.61868 780.944065 336.614537 
C 788.1657 343.610393 797.961714 347.541176 808.174648 347.541176 
L 808.174648 347.541176 
z
" clip-path="url(#p40a51b614a)" style="fill: none; stroke: #000000; stroke-linejoin: miter"/>
   </g>
   <g id="patch_24">
    <path d="M 582.616901 555.388235 
C 589.911854 555.388235 596.909007 552.580533 602.067318 547.583492 
C 607.225628 542.586452 610.123944 535.808059 610.123944 528.741176 
C 610.123944 521.674294 607.225628 514.895901 602.067318 509.89886 
C 596.909007 504.90182 589.911854 502.094118 582.616901 502.094118 
C 575.321949 502.094118 568.324796 504.90182 563.166485 509.89886 
C 558.008175 514.895901 555.109859 521.674294 555.109859 528.741176 
C 555.109859 535.808059 558.008175 542.586452 563.166485 547.583492 
C 568.324796 552.580533 575.321949 555.388235 582.616901 555.388235 
L 582.616901 555.388235 
z
" clip-path="url(#p40a51b614a)" style="fill: none; stroke: #000000; stroke-linejoin: miter"/>
   </g>
  </g>
 </g>
 <defs>
  <clipPath id="p40a51b614a">
   <rect x="126" y="86.4" width="781.2" height="543.6"/>
  </clipPath>
 </defs>
</svg>
